<svg height="48" viewBox="0 0 232 48" width="232" xmlns="http://www.w3.org/2000/svg"><g fill="none" fill-rule="evenodd"><g transform="translate(47 3)"><path d="m21.464 38.824v.664c-.2346678-.1226673-.4453324-.2106664-.632-.264s-.4319985-.08-.736-.08c-.5813362 0-1.0653314.1973314-1.452.592s-.58.9093302-.58 1.544c0 .6613366.1919981 1.1893314.576 1.584s.8933302.592 1.528.592c.5120026 0 .9493315-.1359986 1.312-.408v.68c-.3306683.2240011-.7839971.336-1.36.336-.8106707 0-1.4693308-.2493308-1.976-.748s-.76-1.177329-.76-2.036c0-.8106707.2573308-1.4706641.772-1.98s1.1613294-.764 1.94-.764c.5600028 0 1.0159982.095999 1.368.288zm1.76-.48v2.304c.2400012-.5066692.6666636-.76 1.28-.76.3893353 0 .7026655.1199988.94.36s.356.5653313.356.976v2.776h-.632v-2.624c0-.2933348-.0759992-.5199992-.228-.68s-.3506654-.24-.596-.24c-.2986682 0-.5599989.1146655-.784.344s-.336.5573312-.336.984v2.216h-.624v-5.656zm6.08 3.784h-.704c-.341335 0-.5973325.066666-.768.2s-.256.3013323-.256.504.066666.366666.2.492.3279987.188.584.188c.2880014 0 .5173325-.0813325.688-.244s.256-.3693321.256-.62zm-2.096-1.336v-.632c.3040015-.1866676.7039975-.28 1.2-.28 1.0186718 0 1.528.5173282 1.528 1.552v2.568h-.624v-.48c-.208001.3466684-.5866639.52-1.136.52-.3786686 0-.6839988-.1119989-.916-.336s-.348-.506665-.348-.848c0-.3893353.1479985-.6919989.444-.908s.6999974-.324 1.212-.324h.736v-.208c0-.3200016-.0719993-.5613325-.216-.724s-.386665-.244-.728-.244c-.4320022 0-.8159983.1146655-1.152.344zm4.08 3.208v-4.056h.632v4.056zm.016-5.032c-.074667-.0800004-.112-.1786661-.112-.296s.0386663-.2159996.116-.296.1746661-.12.292-.12.2159996.0399996.296.12.12.1786661.12.296-.0399996.2146663-.12.292-.1786661.116-.296.116-.2159996-.037333-.296-.112zm2.64.976v.712c.2133344-.5013358.5813307-.752 1.104-.752.0960005 0 .1706664.0053333.224.016v.624c-.1120005-.0373335-.2266661-.056-.344-.056-.2826681 0-.5173324.1306654-.704.392s-.28.562665-.28.904v2.216h-.632l.008-4.056zm4.768 1.768v-.16c0-.3360017-.0906657-.603999-.272-.804-.1813342-.200001-.4319984-.3-.752-.3-.3040015 0-.5626656.1093322-.776.328s-.3386665.5306646-.376.936zm.376 1.488v.592c-.3146682.1653342-.6986644.248-1.152.248-.6133364 0-1.1079981-.1879981-1.484-.564s-.564-.8733302-.564-1.492c0-.6453366.1679983-1.1546648.504-1.528s.7679974-.56 1.296-.56c.5066692 0 .9093319.162665 1.208.488.2986682.325335.448.7866637.448 1.384 0 .1706675-.0133332.3279993-.04.472h-2.768c.0480003.400002.1999987.7066656.456.92s.5919979.32 1.008.32c.4533356 0 .8159987-.0933324 1.088-.28zm5.112.288c.3306683 0 .6119989-.1226654.844-.368.2320012-.2453346.348-.6373306.348-1.176 0-.5120026-.1199988-.8879988-.36-1.128s-.5039985-.36-.792-.36c-.3360017 0-.6146655.1346653-.836.404-.2213344.2693347-.332.6546642-.332 1.156 0 .4373355.1066656.7919986.32 1.064s.4826651.408.808.408zm1.192-5.144h.632v5.656h-.632v-.6c-.2880014.4426689-.7039973.664-1.248.664-.5386693 0-.9613318-.199998-1.268-.6s-.46-.8853305-.46-1.456c0-.6346698.1626651-1.147998.488-1.54.325335-.392002.7439975-.588 1.256-.588.5280027 0 .9386652.2266644 1.232.68zm4.584 3.368v-.16c0-.3360017-.0906657-.603999-.272-.804-.1813342-.200001-.4319984-.3-.752-.3-.3040015 0-.5626656.1093322-.776.328s-.3386665.5306646-.376.936zm.376 1.488v.592c-.3146682.1653342-.6986644.248-1.152.248-.6133364 0-1.1079981-.1879981-1.484-.564s-.564-.8733302-.564-1.492c0-.6453366.1679983-1.1546648.504-1.528s.7679974-.56 1.296-.56c.5066692 0 .9093319.162665 1.208.488.2986682.325335.448.7866637.448 1.384 0 .1706675-.0133332.3279993-.04.472h-2.768c.0480003.400002.1999987.7066656.456.92s.5919979.32 1.008.32c.4533356 0 .8159987-.0933324 1.088-.28zm4.192-3.256v.712c.2133344-.5013358.5813307-.752 1.104-.752.0960005 0 .1706664.0053333.224.016v.624c-.1120005-.0373335-.2266661-.056-.344-.056-.2826681 0-.5173324.1306654-.704.392s-.28.562665-.28.904v2.216h-.632l.008-4.056zm4.768 1.768v-.16c0-.3360017-.0906657-.603999-.272-.804-.1813342-.200001-.4319984-.3-.752-.3-.3040015 0-.5626656.1093322-.776.328s-.3386664.5306646-.376.936zm.376 1.488v.592c-.3146682.1653342-.6986644.248-1.152.248-.6133364 0-1.1079981-.1879981-1.484-.564-.3760018-.3760019-.564-.8733302-.564-1.492 0-.6453366.1679984-1.1546648.504-1.528.3360017-.3733352.7679974-.56 1.296-.56.5066692 0 .9093319.162665 1.208.488.2986682.325335.448.7866637.448 1.384 0 .1706675-.0133332.3279993-.04.472h-2.768c.0480003.400002.1999988.7066656.456.92.2560013.2133344.591998.32 1.008.32.4533356 0 .8159987-.0933324 1.088-.28zm1.832-1.208c.0053334.4373355.1386654.8013319.4 1.092.2613347.2906681.6319976.436 1.112.436.3093349 0 .597332-.0879991.864-.264v.6c-.2560012.1546674-.5706648.232-.944.232-.6400032 0-1.1479981-.203998-1.524-.612-.3760018-.408002-.564-.9053304-.564-1.492 0-.5760029.1879982-1.0719979.564-1.488.3760019-.4160021.8893301-.624 1.54-.624.3466684 0 .6559987.0746659.928.224v.6c-.2453345-.1653342-.5333316-.248-.864-.248-.4586689 0-.8253319.1479985-1.1.444-.274668.2960015-.412.6626645-.412 1.1zm4.176-3.648v2.304c.2400012-.5066692.6666636-.76 1.28-.76.3893353 0 .7026655.1199988.94.36.2373346.2400012.356.5653313.356.976v2.776h-.632v-2.624c0-.2933348-.0759992-.5199992-.228-.68-.1520007-.1600008-.3506654-.24-.596-.24-.2986681 0-.5599988.1146655-.784.344-.2240011.2293345-.336.5573312-.336.984v2.216h-.624v-5.656zm6.48 3.368v-.16c0-.3360017-.0906657-.603999-.272-.804-.1813342-.200001-.4319984-.3-.752-.3-.3040015 0-.5626656.1093322-.776.328s-.3386664.5306646-.376.936zm.376 1.488v.592c-.3146682.1653342-.6986644.248-1.152.248-.6133364 0-1.1079981-.1879981-1.484-.564-.3760018-.3760019-.564-.8733302-.564-1.492 0-.6453366.1679984-1.1546648.504-1.528.3360017-.3733352.7679974-.56 1.296-.56.5066692 0 .9093319.162665 1.208.488.2986682.325335.448.7866637.448 1.384 0 .1706675-.0133332.3279993-.04.472h-2.768c.0480003.400002.1999988.7066656.456.92.2560013.2133344.591998.32 1.008.32.4533356 0 .8159987-.0933324 1.088-.28zm2.04-3.256v.712c.2133344-.5013358.5813308-.752 1.104-.752.0960005 0 .1706664.0053333.224.016v.624c-.1120005-.0373335-.226666-.056-.344-.056-.282668 0-.5173324.1306654-.704.392s-.28.562665-.28.904v2.216h-.632l.008-4.056zm2.6 2.048c.0053334.4373355.1386654.8013319.4 1.092.2613347.2906681.6319976.436 1.112.436.3093349 0 .597332-.0879991.864-.264v.6c-.2560012.1546674-.5706648.232-.944.232-.6400032 0-1.1479981-.203998-1.524-.612-.3760018-.408002-.564-.9053304-.564-1.492 0-.5760029.1879982-1.0719979.564-1.488.3760019-.4160021.8893301-.624 1.54-.624.3466684 0 .6559987.0746659.928.224v.6c-.2453345-.1653342-.5333316-.248-.864-.248-.4586689 0-.8253319.1479985-1.1.444-.274668.2960015-.412.6626645-.412 1.1zm4.1760001-3.648v2.304c.2400012-.5066692.6666636-.76 1.28-.76.3893352 0 .7026654.1199988.94.36.2373345.2400012.356.5653313.356.976v2.776h-.632v-2.624c0-.2933348-.0759993-.5199992-.228-.68-.1520008-.1600008-.3506655-.24-.596-.24-.2986682 0-.5599989.1146655-.784.344-.2240012.2293345-.336.5573312-.336.984v2.216h-.624v-5.656zm6.48 3.368v-.16c0-.3360017-.0906658-.603999-.272-.804-.1813343-.200001-.4319984-.3-.752-.3-.3040016 0-.5626656.1093322-.776.328s-.3386665.5306646-.376.936zm.376 1.488v.592c-.3146683.1653342-.6986644.248-1.152.248-.6133364 0-1.1079982-.1879981-1.484-.564-.3760019-.3760019-.564-.8733302-.564-1.492 0-.6453366.1679983-1.1546648.504-1.528.3360016-.3733352.7679973-.56 1.296-.56.5066692 0 .9093318.162665 1.208.488.2986681.325335.448.7866637.448 1.384 0 .1706675-.0133332.3279993-.04.472h-2.768c.0480002.400002.1999987.7066656.456.92.2560012.2133344.5919979.32 1.008.32.4533356 0 .8159986-.0933324 1.088-.28zm5.112.288c.3306683 0 .6119988-.1226654.844-.368.2320011-.2453346.348-.6373306.348-1.176 0-.5120026-.1199988-.8879988-.36-1.128s-.5039986-.36-.792-.36c-.3360017 0-.6146656.1346653-.836.404-.2213345.2693347-.332.6546642-.332 1.156 0 .4373355.1066656.7919986.32 1.064s.482665.408.808.408zm1.192-5.144h.632v5.656h-.632v-.6c-.2880015.4426689-.7039973.664-1.248.664-.5386694 0-.9613318-.199998-1.268-.6s-.46-.8853305-.46-1.456c0-.6346698.162665-1.147998.488-1.54.3253349-.392002.7439974-.588 1.256-.588.5280026 0 .9386652.2266644 1.232.68zm4.52 1.6h.632v4.056h-.632v-.704c-.2133344.5013358-.6373302.752-1.272.752-.400002 0-.7159989-.1186655-.948-.356-.2320012-.2373345-.348-.555998-.348-.956v-2.792h.632v2.632c0 .2933348.0746659.5173326.224.672.149334.1546674.3519987.232.608.232.3360016 0 .603999-.1173322.804-.352s.3-.551998.3-.952zm8.0319999-1.12v.664c-.234668-.1226673-.445332-.2106664-.632-.264s-.431998-.08-.736-.08c-.581336 0-1.065331.1973314-1.452.592s-.58.9093302-.58 1.544c0 .6613366.191998 1.1893314.576 1.584s.89333.592 1.528.592c.512003 0 .949332-.1359986 1.312-.408v.68c-.330668.2240011-.783997.336-1.36.336-.810671 0-1.469331-.2493308-1.976-.748s-.76-1.177329-.76-2.036c0-.8106707.257331-1.4706641.772-1.98s1.16133-.764 1.94-.764c.560003 0 1.015998.095999 1.368.288zm3.32 3.304h-.704c-.341335 0-.597332.066666-.768.2-.170667.133334-.256.3013323-.256.504s.066666.366666.2.492.327999.188.584.188c.288002 0 .517333-.0813325.688-.244.170668-.1626675.256-.3693321.256-.62zm-2.096-1.336v-.632c.304002-.1866676.703998-.28 1.2-.28 1.018672 0 1.528.5173282 1.528 1.552v2.568h-.624v-.48c-.208001.3466684-.586664.52-1.136.52-.378668 0-.683999-.1119989-.916-.336s-.348-.506665-.348-.848c0-.3893353.147999-.6919989.444-.908.296002-.2160011.699998-.324 1.212-.324h.736v-.208c0-.3200016-.071999-.5613325-.216-.724s-.386665-.244-.728-.244c-.432002 0-.815998.1146655-1.152.344zm4.672-.848v.704c.240001-.5066692.666664-.76 1.28-.76.394669 0 .709332.1199988.944.36s.352.559998.352.96v2.792h-.632v-2.624c0-.2986682-.075999-.5266659-.228-.684s-.350665-.236-.596-.236c-.304001 0-.566665.1173322-.788.352-.221334.2346678-.332.5599979-.332.976v2.216h-.624v-4.056zm6.08 2.184h-.704c-.341335 0-.597332.066666-.768.2-.170667.133334-.256.3013323-.256.504s.066666.366666.2.492.327999.188.584.188c.288002 0 .517333-.0813325.688-.244.170668-.1626675.256-.3693321.256-.62zm-2.096-1.336v-.632c.304002-.1866676.703998-.28 1.2-.28 1.018672 0 1.528.5173282 1.528 1.552v2.568h-.624v-.48c-.208001.3466684-.586664.52-1.136.52-.378668 0-.683999-.1119989-.916-.336s-.348-.506665-.348-.848c0-.3893353.147999-.6919989.444-.908.296002-.2160011.699998-.324 1.212-.324h.736v-.208c0-.3200016-.071999-.5613325-.216-.724s-.386665-.244-.728-.244c-.432002 0-.815998.1146655-1.152.344zm5.592 2.696c.330668 0 .611999-.1226654.844-.368s.348-.6373306.348-1.176c0-.5120026-.119999-.8879988-.36-1.128s-.503998-.36-.792-.36c-.336002 0-.614665.1346653-.836.404-.221334.2693347-.332.6546642-.332 1.156 0 .4373355.106666.7919986.32 1.064s.482665.408.808.408zm1.192-5.144h.632v5.656h-.632v-.6c-.288001.4426689-.703997.664-1.248.664-.538669 0-.961332-.199998-1.268-.6s-.46-.8853305-.46-1.456c0-.6346698.162665-1.147998.488-1.54s.743998-.588 1.256-.588c.528003 0 .938665.2266644 1.232.68zm4.184 3.784h-.704c-.341335 0-.597332.066666-.768.2-.170667.133334-.256.3013323-.256.504s.066666.366666.2.492.327999.188.584.188c.288002 0 .517333-.0813325.688-.244.170668-.1626675.256-.3693321.256-.62zm-2.096-1.336v-.632c.304002-.1866676.703998-.28 1.2-.28 1.018672 0 1.528.5173282 1.528 1.552v2.568h-.624v-.48c-.208001.3466684-.586664.52-1.136.52-.378668 0-.683999-.1119989-.916-.336s-.348-.506665-.348-.848c0-.3893353.147999-.6919989.444-.908.296002-.2160011.699998-.324 1.212-.324h.736v-.208c0-.3200016-.071999-.5613325-.216-.724s-.386665-.244-.728-.244c-.432002 0-.815998.1146655-1.152.344z" fill="#f9f9fb"/><g fill="#f8cecd" transform="translate(17.419355 18.322581)"><path d="m.69700616 2.33361953h1.58410492l1.45737652 3.58763645.59139917 1.57856004h.0422428c-.03520251-.38268314-.08096508-.80951562-.1372891-1.28051024-.05632401-.47099463-.08448559-.91622506-.08448559-1.33570465v-2.5499816h1.48905862v7.19735067h-1.58410492l-1.45737652-3.58763646-.59139917-1.56752116h-.0422428c.03520251.39740172.08096509.8242342.1372891 1.28051025.05632401.45627604.08448559.89782688.08448559 1.32466576v2.54998161h-1.48905862z"/><path d="m18.6290738 2.33361953h1.5524228v4.59217466c0 .43419817.0774444.7653613.2323354.99349932s.3977847.34220532.7286883.34220532c.3309035 0 .5755573-.1140673.7339686-.34220532s.2376157-.55930115.2376157-.99349932v-4.59217466h1.4996193v4.42659144c0 .94198925-.2024113 1.66134916-.6072402 2.15810131-.4048288.49675214-1.0261438.74512449-1.8639634.74512449-.8448602 0-1.4749756-.24837235-1.8903652-.74512449-.4153896-.49675215-.6230813-1.21611206-.6230813-2.15810131z"/><path d="m36.5928235 2.33361953h1.5524229l.6970061 2.5499816.2323354.99349932h.0316821l.2323354-.99349932.6653241-2.5499816h1.5524228v7.19735067h-1.2567233v-2.35128174c0-.19870086.0070404-.44339362.0211214-.73408561.014081-.290692.031682-.59057861.0528035-.89966884.0211215-.30909022.0422427-.60897683.0633642-.89966883s.0422427-.53170517.0633642-.72304673h-.0316821l-.5385956 1.97595977-.528035 1.71102661h-.6864455l-.5280349-1.71102661-.5174743-1.97595977h-.0422428c.0211215.19134156.0422427.43235473.0633642.72304673s.0422427.59057861.0633642.89966883c.0211215.30909023.0387225.60897684.0528035.89966884.014081.29069199.0211214.53538475.0211214.73408561v2.35128174h-1.2356019z"/><path d="m54.8506494 2.34403011h4.545045v1.36882129h-2.9912738v1.44609346h2.5367693v1.35778241h-2.5367693v1.65583221h3.0969725v1.3688213h-4.6507437zm2.8538655-.55194407h-1.2366751l.8561597-1.32466577h1.6489z"/><path d="m74.1044279 5.64528394h.7603704c.8378197 0 1.2567232-.35692026 1.2567232-1.07077149 0-.35324597-.1056059-.59977852-.316821-.73960505-.211215-.13982653-.5245126-.20973875-.9399022-.20973875h-.7603704zm2.1332613 3.88568626-1.3200874-2.59413713h-.8131739v2.59413713h-1.5524228v-7.19735067h2.4395216c.3661061 0 .7093254.0367959 1.0296682.11038881s.6019586.19685919.8448559.36980253.4347481.40291773.5755582.68993008c.14081.28701236.2112139.64393262.2112139 1.0707715 0 .52986896-.1126463.96590041-.3379423 1.30810744-.2252961.34220704-.5209927.59793857-.8870988.76720226l1.5524228 2.88114805z"/><path d="m90.547437 8.1621489h1.6052263v-4.45970808h-1.6052263v-1.36882129h4.7734361v1.36882129h-1.6052263v4.45970808h1.6052263v1.3688213h-4.7734361z"/><path d="m110.855662 3.60309089c-.366106 0-.651242.20237747-.855417.60713847-.204174.40476101-.30626.96773833-.30626 1.68894886 0 .72856981.102086 1.3044257.30626 1.72758493.204175.42315924.489311.63473568.855417.63473568.359066 0 .642441-.21157644.850136-.63473568.207695-.42315923.311541-.99901512.311541-1.72758493 0-.72121053-.103846-1.28418785-.311541-1.68894886-.207695-.404761-.49107-.60713847-.850136-.60713847zm2.988678 7.66098371c-.119689.0662336-.264017.1214274-.432989.1655832-.168972.0441557-.362583.0662333-.580838.0662333-.337944 0-.647722-.0478347-.929342-.1435055s-.536834-.228136-.765651-.3973997c-.228816-.1692637-.427707-.373481-.596679-.6126579-.168972-.239177-.30626-.4985881-.411867-.77824116-.619564-.18398228-1.112392-.59057701-1.478498-1.21979639-.366106-.62921939-.549157-1.44424865-.549157-2.44511223 0-.58874329.066884-1.11308491.200654-1.5730406.133769-.45995569.32034-.84631268.559717-1.15908255s.528033-.55194324.865977-.71752729.714605-.24837483 1.129995-.24837483c.408349 0 .78149.08279078 1.119434.24837483s.6266.40659722.865977.72304673c.239378.31644952.425948.7046463.559718 1.16460199.133769.45995569.200653.98061772.200653 1.56200172 0 .94934854-.165449 1.73494108-.496353 2.35680117-.330904.6218601-.781489 1.0394936-1.35177 1.25291304.119689.25757519.297459.43603532.533316.53538577.235857.0993504.47699.1490249.723408.1490249.105607 0 .205933-.0147184.30098-.0441555.095046-.0294372.181291-.0625535.258737-.09935z"/><path d="m126.348208 2.33361953h1.552423v4.59217466c0 .43419817.077444.7653613.232335.99349932s.397785.34220532.728688.34220532c.330904 0 .575558-.1140673.733969-.34220532s.237616-.55930115.237616-.99349932v-4.59217466h1.499619v4.42659144c0 .94198925-.202411 1.66134916-.60724 2.15810131-.404829.49675214-1.026144.74512449-1.863964.74512449-.84486 0-1.474975-.24837235-1.890365-.74512449-.415389-.49675215-.623081-1.21611206-.623081-2.15810131z"/><path d="m144.618218 2.33361953h4.541101v1.36882129h-2.988678v1.44609346h2.534568v1.35778241h-2.534568v1.65583221h3.094285v1.3688213h-4.646708z"/><path d="m163.004396 7.5108549c.260498.22077873.543874.40107866.850136.54090519s.610759.20973874.913501.20973874c.359065 0 .62132-.06255303.786772-.18766098.165451-.12510795.248176-.2943691.248176-.50778854 0-.11038937-.024641-.20605872-.073925-.28701092-.049283-.0809522-.119687-.15270421-.211214-.21525819-.091526-.06255397-.202413-.12142742-.332662-.1766221s-.279857-.11590792-.44883-.18214154l-.887098-.39739973c-.190094-.07359291-.374904-.16926226-.554437-.28701092s-.336182-.25573329-.469951-.41395805c-.13377-.15822476-.241136-.34220427-.322101-.55194407-.080966-.2097398-.121448-.44707337-.121448-.71200785 0-.29437164.061603-.57218071.184812-.83343555.123209-.26125483.295698-.48938943.517474-.68441064s.487551-.34772421.797333-.45811358.651241-.16558322 1.024388-.16558322c.42243 0 .830773.08095099 1.225041.24285539s.749808.39739819 1.06663.70648841l-.792052 1.02661597c-.239377-.18398228-.47523-.32564651-.707567-.42499693-.232336-.09935043-.496351-.1490249-.792052-.1490249-.302742 0-.536835.05703365-.702287.17110266s-.248176.27413119-.248176.48019134c0 .22077873.105606.3863603.316821.49674966.211215.11038937.48227.22813626.813174.35324421l.834295.37532196c.457632.17662299.818453.41947595 1.082472.72856618.264018.30909022.396026.71752475.396026 1.22531583 0 .30173093-.059844.58689918-.179532.85551331-.119689.26861412-.292178.5041079-.517474.70648841-.225296.2023805-.503392.36428248-.834296.48571078-.330903.1214283-.711085.18214154-1.140555.18214154-.464673 0-.924059-.08647037-1.378171-.25941371-.454113-.17294334-.867736-.43235446-1.240883-.77824114z"/></g><g fill="#f9f9fb"><path d="m.28890983 2.01704894h4.54504493v1.36882129h-2.99127375v1.44609346h2.53676926v1.35778242h-2.53676926v1.6558322h3.09697247v1.3688213h-4.65074365zm2.85386542-.55194407h-1.23667501l.85615962-1.32466577h1.64890002z"/><path d="m17.8454671 5.6598798c0-.59610258.0845581-1.12780338.2536769-1.59511836s.4016537-.86287095.6976116-1.18667975c.2959579-.32380881.6447602-.57034136 1.0464173-.73960506.4016571-.16926369.8314943-.25389427 1.2895244-.25389427.4439368 0 .8367798.09382956 1.1785407.28149148s.6289062.39923836.8614445.63473568l-.8561596 1.0045382c-.1620722-.15454511-.3382349-.27965118-.5284936-.37532196-.1902586-.09567079-.4087005-.14350546-.655332-.14350546-.2466316 0-.47212.05335406-.6764718.16006378-.2043519.10670972-.3822763.25941272-.5337786.45811358-.1515022.19870086-.2695313.44155382-.3540907.72856617s-.1268384.6108163-.1268384.97142156c0 .7432884.1620697 1.31914429.4862141 1.72758494.3241443.40844065.746935.61265792 1.2683846.61265792.2466316 0 .4703583-.05887345.6711869-.17662211.2008285-.11774865.3857994-.27229145.5549182-.46363301l.8561597.98246044c-.5778226.70649194-1.3036132 1.05973261-2.1773936 1.05973261-.4439369 0-.8632043-.07911119-1.2578148-.23733595-.3946105-.15822475-.7398896-.39187874-1.0358475-.70096896-.2959578-.30909023-.5302543-.69360742-.7028964-1.15356311s-.2589619-.99165649-.2589619-1.59511836z"/><path d="m37.5265686 5.32871336h.7610308c.8385474 0 1.2578148-.35692027 1.2578148-1.0707715 0-.35324597-.1056977-.59977852-.3170962-.73960505s-.5249682-.20973875-.9407186-.20973875h-.7610308zm2.1351142 3.88568625-1.321234-2.59413713h-.8138802v2.59413713h-1.5537711v-7.19735067h2.4416404c.366424 0 .7099414.0367959 1.0305625.11038881.320621.07359291.6024815.19685919.8455897.36980253.2431083.17294334.4351257.40291774.5760581.68993009.1409323.28701235.2113974.64393261.2113974 1.07077149 0 .52986896-.1127442.96590041-.3382359 1.30810745-.2254917.34220703-.5214452.59793856-.8878693.76720225l1.5537712 2.88114805z"/><path d="m53.9838592 7.84557831h1.6066205v-4.45970808h-1.6066205v-1.36882129h4.7775821v1.36882129h-1.6066205v4.45970808h1.6066205v1.3688213h-4.7775821z"/><path d="m73.559262 3.38587023h-2.061125v-1.36882129h5.6865911v1.36882129h-2.061125v5.82852938h-1.5643411z"/><path d="m89.815725 2.01704894h1.5537712v4.59217466c0 .43419817.0775116.7653613.2325372.99349932.1550256.22813803.3981302.34220533.7293212.34220533.3311909 0 .5760572-.1140673.7346061-.34220533.1585488-.22813802.2378221-.55930115.2378221-.99349932v-4.59217466h1.5009218v4.42659144c0 .94198925-.2025872 1.66134916-.6077677 2.15810131-.4051804.49675215-1.027035.74512449-1.8655823.74512449-.845594 0-1.4762567-.24837234-1.8920071-.74512449s-.6236225-1.21611206-.6236225-2.15810131z"/><path d="m109.401698 5.32871336h.76103c.838548 0 1.257815-.35692027 1.257815-1.0707715 0-.35324597-.105697-.59977852-.317096-.73960505-.211398-.13982653-.524968-.20973875-.940719-.20973875h-.76103zm2.135114 3.88568625-1.321234-2.59413713h-.81388v2.59413713h-1.553771v-7.19735067h2.44164c.366424 0 .709941.0367959 1.030562.11038881.320622.07359291.602482.19685919.84559.36980253s.435126.40291774.576058.68993009c.140933.28701235.211398.64393261.211398 1.07077149 0 .52986896-.112744.96590041-.338236 1.30810745-.225492.34220703-.521445.59793856-.887869.76720225l1.553771 2.88114805z"/><path d="m126.070386 2.01704894h4.545045v1.36882129h-2.991274v1.44609346h2.536769v1.35778242h-2.536769v1.6558322h3.096972v1.3688213h-4.650743z"/><path d="m144.472533 7.19428431c.260725.22077873.544347.40107866.850874.54090519.306528.13982653.61129.20973875.914294.20973875.359378 0 .62186-.06255304.787456-.18766099.165595-.12510794.248392-.2943691.248392-.50778854 0-.11038937-.024663-.20605872-.073989-.28701092-.049327-.0809522-.119792-.15270421-.211398-.21525818-.091606-.06255398-.202588-.12142742-.332951-.17662211-.130362-.05519468-.2801-.11590792-.449219-.18214154l-.887869-.39739973c-.190259-.07359291-.37523-.16926226-.554919-.28701092-.179688-.11774865-.336473-.25573329-.470359-.41395805s-.241345-.34220427-.322381-.55194407c-.081036-.20973979-.121554-.44707337-.121554-.71200785 0-.29437164.061657-.57218071.184973-.83343554.123316-.26125484.295955-.48938944.517924-.68441065.221968-.19502121.487974-.34772421.798025-.45811358.310051-.11038936.651807-.16558322 1.025278-.16558322.422797 0 .831494.08095099 1.226105.24285539.39461.16190441.750459.39739819 1.067557.70648841l-.79274 1.02661597c-.239585-.18398227-.475644-.3256465-.708182-.42499693s-.496782-.1490249-.79274-.1490249c-.303005 0-.537301.05703365-.702897.17110266-.165595.11406901-.248392.27413119-.248392.48019134 0 .22077873.105698.3863603.317096.49674966.211399.11038937.48269.22813626.813881.35324421l.835019.37532197c.45803.17662298.819164.41947594 1.083412.72856617.264248.30909022.39637.71752475.39637 1.22531583 0 .30173094-.059895.58689919-.179687.85551331-.119793.26861412-.292432.50410791-.517924.70648841s-.503829.36428248-.83502.48571078-.711703.18214154-1.141546.18214154c-.465077 0-.924862-.08647037-1.379368-.25941371-.454507-.17294334-.86849-.43235446-1.24196-.77824114z"/></g></g><g fill="#f9f9fb" fill-rule="nonzero"><path d="m15.3246857 20.6553765c-1.9236683 2.2359907-4.3969562 3.5815779-7.15515717 4.45601-2.18029218.6927578-4.40099756 1.2577447-6.603517 1.876635-.0190335.0060883-.03868301.010105-.05859914.0119785-.22631393-.6109046-.42837993-1.2411079-.60619801-1.89061 1.1578382-.299463 2.29749046-.5829547 3.43512206-.8963926 2.03682532-.5629906 4.07365064-1.1459453 5.94882316-2.1321769 2.5682589-1.34958 4.5323405-3.264147 5.372935-6.105053.480539-1.5040244.4671001-3.1197053-.0383925-4.6157236-.5213303-1.4973152-1.5437843-2.07627707-3.1259611-1.79677823-.8931317.15172793-1.6003627.85446783-1.818594 1.83471023-.1555908.7167148-.2465205 1.4494011-.42838 2.1581302-.68904502 2.717128-2.34598625 4.5498418-5.11833183 5.3424206-1.65700931.4638818-3.38059516.6521194-5.10014593.5570012-.0202066-.399284-.02828924-.7985681-.02828924-1.1978521 0-.237574 0-.4731516.0101033-.7087292 1.01033002-.0738675 1.98428816-.123778 2.95016365-.2295883.54704411-.0709172 1.08756657-.1844003 1.61652803-.3393915 2.32577971-.6408509 3.44926669-2.3038689 3.86552266-4.5478453.06870244-.3773234.1313429-.7546468.202066-1.1319702.46273115-2.68518525 2.68545716-4.19248252 5.40930696-3.71134525 2.2085814.39928405 3.2714486 1.90059207 3.6917458 3.88503375.725417 3.42985-.1050743 6.4903622-2.4207507 9.1815367z"/><path d="m26.25 21.2374375c-.0524355.4609622-.1169714.9139076-.2016749 1.3628446-.0342847.2004184-.0726029.414866-.1129379.6192927-1.6456669.1823806-4.1625691-.4188743-5.3383336-2.7938315-.7119122-1.4390036-.9337546-2.9802205-1.082994-4.549496-.1794906-1.8618862-.2662108-3.7438143-.6050246-5.5756377-.4013329-2.16251377-1.6436501-3.72377253-3.906442-4.30498567-3.3962047-.86781134-6.55039955.47098307-7.93187235 3.42915754-.28839505.61728843-.38923248 1.31674843-.62115857 1.96409963-.28093487.8484078-.60882 1.680744-.98215658 2.4932039-.45981868.9439703-1.30483635 1.4249743-2.3353949 1.6033466-1.03989049.1619506-2.10051774.1381962-3.1320106-.0701464.06722495-.656036.15663414-1.3007149.26822757-1.9340368.44368469.0340711.87930239.0761589 1.31492009.0901882.35321262.013041.70690587.0029984 1.05879303-.0300627.55057237-.054113.99627382-.3006275 1.19189843-.841757.30856254-.8557862.64535956-1.7075641.86720191-2.5874006.9607091-3.98346437 4.70347595-6.67365758 8.81117467-6.33321904 1.8473418.13027191 3.5615781.56918804 4.9813691 1.81579002 1.5387792 1.35081951 2.2950599 3.12652587 2.5693378 5.08661712.24806 1.7737021.2984788 3.5734587.5102374 5.3511692.1110173.9996179.3135307 1.9870927.6050245 2.9501578.4719192 1.5071458 1.6133989 2.2046016 3.1763791 2.2787563.1714236.0040084.6695606-.022046.8954364-.0240502z"/><path d="m26.25 18.0610096v.5740017c0 .290987-.01584.5779878-.03168.8649887-.8900074-.17503-1.6833866-.6773603-2.22552-1.4090945-.65538-.9506903-.85338-2.0548463-.89892-3.1749469-.099-2.0887284-.25146-4.1635054-.85536-6.17849057-1.06128-3.5436633-4.38966-6.45951224-7.95366-6.67476288-3.83724-.23518126-6.9498 1.22373974-9.07038 4.56411078-.78744619 1.25979754-1.4172373 2.61270586-1.87506 4.02797727l-1.3068.779287-.53262-1.49678916c.21582-.59791844.43164-1.19583689.67914-1.77781084.8613-2.02495046 1.96218-3.91835886 3.66894-5.33741863 4.47084-3.71307353 12.11166-4.5162773 16.78446 2.2661109 1.31472 1.90935289 1.89684 4.04392173 2.15622 6.29608123.1683 1.4529418.23364 2.919835.396 4.3727768.08514.7254744.33066 1.3951431 1.05138 1.7020745.01188.1993062.01386.4006054.01386.6019046z"/><path d="m24 29.1510461c-.1277064.273239-.2613991.5404059-.3990826.8095969-.1423394.2698656-.2886697.5329846-.4389908.789357-.7023853-.4898061-1.5663991-1.1030758-2.2588073-1.5503781-1.2037385-.7949391-2.5355468-1.369681-3.9349542-1.6981295-1.4805963-.3339587-2.929266-.0789357-4.3440137.3278867-3.17071103.9128206-6.32346333 1.8802889-9.48419727 2.8335892h-.02793578c-.30928899-.5302859-.59862385-1.0868838-.86201835-1.6637216.89594037-.2955029 1.76993119-.6071977 2.66188073-.8662687 2.77162844-.793405 5.54525227-1.584786 8.33084867-2.3316391 2.1949541-.5889818 4.3320412-.281335 6.3952981.6335095 1.5710222.6960633 3.0390545 1.6102061 4.3619725 2.7161977z"/><path d="m14.9124318 12.652152c-.2717304-.82466-1.0398642-1.3875804-1.9133085-1.402152-.873121.0030064-1.6434363.5680881-1.9031529 1.3960995-.2721691.8634836.0162489 1.5776732.6621429 2.2192334l-.9261876 1.4747814c-.92400582 1.5220453-2.36444254 2.6666628-4.06222601 3.2279758-1.38115686.462004-2.78465595.8574311-4.18612393 1.2488231-.85509858.2340283-1.72035273.4256894-2.58357576.6334903.07108896.6052455.16655127 1.2104909.2802936 1.7995965.07727884-.0015599.15419022-.0110248.22951577-.0282448 1.75691276-.4478816 3.52398108-.8634835 5.26870716-1.3618023 1.78331723-.5104236 3.49960773-1.1842636 4.90310687-2.4613315 1.1902322-1.0854069 1.9986152-2.4431742 2.8069981-3.806994.1625694-.2670188.3781874-.4983513.6337073-.6798924.7275537-.5042592 1.0463343-1.4159268.790103-2.259583zm-1.8584684 1.2790854c-.3951824-.0000142-.7158442-.3176425-.7169542-.7101718s.3177504-.7119419.7129264-.7141611c.3951761-.0022193.7176522.3135916.7210107.7061083.001625.1899263-.073196.3726288-.2078329.5074989s-.3179339.2107325-.50915.2107257z"/><path d="m22.5 32.0225062c-.185567.2738793-.3783725.5409116-.5784163.801097-.0522902.0519982-.0980573.110662-.1362141.1745981-.13424.1704898-.270454.3368715-.4106164.499145-1.5792937-1.3064043-3.5376179-2.0664194-5.4900197-2.33756-1.4470279-.2054095-2.8762887.0657311-4.2483001.4909287-1.9741171.6162285-3.91270013 1.3515945-5.86510197 2.0397162-.04935293.0184869-.09870585.0369738-.14805878.0595688-.32901952-.3669983-.6455363-.7559069-.94955034-1.1667259-.05527528-.1314621-.1144988-.2649782-.17372231-.410819 1.10945383-.4395763 2.17152884-.887369 3.25137091-1.2838093 2.14389121-.7887724 4.31936829-1.4892188 6.60342179-1.6186268 2.9611757-.1704899 5.6222856.7517987 7.9813556 2.6210251.051327.0534065.1066023.0903802.1638517.1314621z"/><path d="m19.5 34.7188664c-.2373792.1931097-.4786712.374555-.723876.544336-.3430247.2403266-.7004016.4597599-1.0701627.6570913-.4754104-.1944057-.9371259-.3888114-1.4007979-.5832171-2.0268528-.8126159-4.0263158-.4529653-6.0140402.1594126-.51845173.1594127-1.03299062.3285457-1.56513732.5035108-.70242437-.3685571-1.36460854-.808309-1.97598588-1.3122385 1.14841952-.3790911 2.2577106-.7776228 3.3943916-1.09256.8714927-.2447361 1.7602507-.4240936 2.658777-.5365597 2.2929262-.2838323 4.6562836.4937905 6.6968314 1.6602246z"/><path d="m25.5 25.8632075c-.0847957.2955975-.1716596.5870021-.264728.8742139-.0345114.0773291-.060855.1581422-.0785911.2410901l-.2730008.7714885c-2.9285535-.8742138-5.6399473-1.9874214-7.4909752-4.4737945l-.1427049-1.5262055 1.6007771.1656184c1.6028454 2.1949686 4.1487842 3.1677149 6.6492229 3.9475891z"/></g></g></svg>